<svg id="Layer_1_Image" data-name="Layer 1 Image" xmlns="http://www.w3.org/2000/svg" viewBox="0 0 1180.02 610.43"><defs><style>.cls-1{fill:#ec3228;}.cls-2{fill:#032c6a;}</style></defs><title>NJIT Esports Red Logo</title><path class="cls-1" d="M485.16.43c-13,14.46-20.93,31.61-25.53,50.26-2.76,11.17-4.41,22.63-6.45,34-2.1,11.67-4,23.39-6.13,35.06-2.54,13.89-5.26,27.74-7.88,41.62-3.63,19.3-6.92,38.66-10.84,57.92-3.5,17.19-6.05,34.57-9.2,51.84-2.8,15.32-5.95,30.58-8.75,45.91-2.87,15.66-5.4,31.39-8.25,47.06-2.14,11.76-4.54,23.47-6.83,35.2-1.9-.91-3.93-.53-5.91-.54-29.82,0-59.65-.13-89.47.11-4.69,0-6.54-1.37-7.91-5.82Q259.77,288.62,227.17,184.3c-3.74-12-7.51-24.08-11.57-37.1-.83,4.06-1.56,7-2,9.92-2,13.47-5.77,26.63-6.63,40.27-2.27,11.56-4.59,23.11-6.79,34.68-2.25,11.8-4.41,23.61-6.55,35.42-2.52,13.9-4.95,27.82-7.48,41.71-2.07,11.34-3.85,22.74-6.44,34-3.52,15.24-4,30.63-3.44,46.11.1,2.88,1.36,5.74.68,8.73a5.86,5.86,0,0,1-1.85.65q-40,.08-80,.1c-2.58,0-3.08-.94-2.49-3.36.91-3.7,1.47-7.5,2.16-11.25q11.14-60.52,22.29-121,11.28-61.5,22.47-123,9.79-53.43,19.76-106.81c.55-2.91-.22-4.52-2.08-6.45C150.17,19.5,143.27,12,136.36,4.59c-1.07-1.16-2.77-2.09-2.2-4.16h113c5.67,18.54,11.39,37.05,17,55.6q16.53,54.75,33,109.54c5.44,18.11,10.68,36.28,16.39,54.3.84,2.68.23,6.3,3.46,8a14.14,14.14,0,0,0,.18,7.68c5.62,17.25,11,34.57,16.75,52.51a27.63,27.63,0,0,0,1-2.89q6.62-36,13.2-72c8.25-44.89,16.61-89.76,24.68-134.69,1.24-7,3.88-13.84,2.84-21.08C373.46,42.4,366,30,356,19c-5.45-6-11.16-11.8-18.65-15.38-.37-1-1.52-1.82-1.17-3.14Z" transform="translate(-0.16)"/><path class="cls-1" d="M1180.16,2.43c-7.11,11.46-12,24.05-18,36q-5.06,10-10.15,20c-2.25.16-4.2-.9-6.23-1.59-20-6.78-39.87-13.63-59.85-20.35-1.45-.49-4.05-2.89-4.56.9-1.12,8.38-3.69,16.51-4.09,25-4,21.39-8.24,42.74-12,64.17-3.84,21.77-8,43.48-12,65.22-3.65,19.82-7.1,39.66-11,59.44-3.7,18.82-6.71,37.78-10.16,56.65-2.81,15.34-6.1,30.6-8.65,46-2.21,13.42-2.76,27-.42,40.49a28,28,0,0,1,.08,4.49q-42.46.11-84.92.26c-2.87,0-3.34-1.17-2.87-3.68q7.65-41.13,15.18-82.28Q962.36,249,974.2,184.9,985.53,123.45,996.88,62c1.72-9.37,3.35-18.75,5.08-28.46L929.89,46.61c-.18-2.27,1-3.54,1.78-5,6.31-12.07,12.7-24.1,19-36.18.8-1.54,2.31-3,1.5-5.05q112,0,224,.11C1177.42.54,1180.48-1.53,1180.16,2.43Z" transform="translate(-0.16)"/><path class="cls-1" d="M684.16.43a112.61,112.61,0,0,0-26.39,52c-2.95,13.83-5,27.84-7.63,41.75-2.42,13.1-5,26.17-7.46,39.27-2.25,12.16-4.31,24.35-6.53,36.5-2.11,11.51-4.36,23-6.47,34.51-2.55,13.91-4.78,27.89-7.58,41.76-4.68,23.22-7.77,46.75-14.52,69.58A239.6,239.6,0,0,1,576.23,383a215.18,215.18,0,0,1-44,47c-22.77,18.24-48.34,30.9-76.06,39.45-12.37,3.82-24.82,7.36-37.77,8.72-.08-2.33,2.07-2.33,3.37-3a163,163,0,0,0,38.74-28.66c34.87-35.44,56.72-78.05,66.77-126.41,8.51-40.93,15.36-82.22,22.94-123.34,7.86-42.6,15.22-85.3,23.79-127.76,3.62-17.92,1.6-33.56-10.56-47.46-6.2-7.09-13.64-12.63-21.68-17.44-1.45-.87-3.66-1.19-3.59-3.64Z" transform="translate(-0.16)"/><path class="cls-1" d="M883.16.43c-2.27,2.83-4.83,5.48-6.77,8.51C866,25.1,858.88,42.44,856,61.64c-2.27,15.25-5.9,30.29-8.69,45.47-3.2,17.44-6,34.94-9.21,52.38-3.07,16.78-6.49,33.5-9.61,50.27-2.56,13.75-4.87,27.55-7.36,41.31-2.43,13.43-5,26.85-7.44,40.28-2.54,13.91-5,27.84-7.56,41.76-1.4,7.67-2.95,15.32-4.28,23-1.93,11.09-2.69,22.21-.8,33.41.52,3,.58,6.14.85,9.22-28.81,0-57.61-.08-86.42.07-4,0-4.93-1.14-4.11-4.87,1.21-5.5,2-11.09,3.07-16.64q12.78-69,25.58-138Q755,158,769.82,76.66c1.28-7.1,4-14.11,2.73-21.56C769.38,36.59,759.4,22,746.08,9.37c-3-2.9-7.24-4.67-8.92-8.94Z" transform="translate(-0.16)"/><path class="cls-2" d="M952.16.43c.81,2.07-.7,3.51-1.5,5.05-6.29,12.08-12.68,24.11-19,36.18-.74,1.41-2,2.68-1.78,5L1002,33.53c-1.73,9.71-3.36,19.09-5.08,28.46Q985.56,123.45,974.2,184.9q-11.84,64.15-23.66,128.3-7.59,41.15-15.18,82.28c-.47,2.51,0,3.69,2.87,3.68q42.45-.21,84.92-.26c2.86,8.35,4.18,17.22,8.72,25,.77,1.3.54,2.65-1.54,2.55-.5,0-1,0-1.5,0l-142.45,0c-.63,0-1.25-.12-2.49-.25,2.79-3.83,5.4-7.26,7.83-10.8,10.55-15.39,16.56-32.46,19.54-50.83,2.46-15.2,5.78-30.27,8.58-45.42,2.54-13.74,4.85-27.52,7.33-41.27,2.72-15,5.53-30,8.29-45.06q3.87-21.06,7.7-42.13c2.42-13.26,4.82-26.52,7.28-39.78,2.54-13.71,5.16-27.42,7.71-41.14,2.85-15.29,5.67-30.6,8.62-46.55L884.15,79C898,53.64,911.44,28.91,924.91,4.18c.7-1.28,1.5-2.5,2.25-3.75Z" transform="translate(-0.16)"/><path class="cls-2" d="M134.16.43c-.57,2.07,1.13,3,2.2,4.16,6.91,7.45,13.81,14.91,20.86,22.23,1.86,1.93,2.63,3.54,2.08,6.45q-10.06,53.37-19.76,106.81-11.26,61.5-22.47,123-11.1,60.52-22.29,121c-.69,3.75-1.25,7.55-2.16,11.25-.59,2.42-.09,3.37,2.49,3.36q40-.08,80-.1A5.86,5.86,0,0,0,177,398c1.73,5.5,3.52,11,5.15,16.52a35.76,35.76,0,0,0,3,7.68c1.53,2.68,1.87,4.31-2.4,4.3q-71.24-.18-142.47-.08c-.61,0-1.21-.1-2.68-.23a119.88,119.88,0,0,0,14.52-21.26c7.42-14.24,11.64-29.41,14.15-45.21,2.17-13.62,5.16-27.1,7.64-40.66,2.52-13.74,4.81-27.53,7.29-41.27,2.72-15,5.56-30,8.31-45q3.87-21.09,7.69-42.2,3.06-16.76,6.15-33.52,3.9-21.07,7.85-42.14c2.89-15.3,5.93-30.58,8.73-45.9,2.54-13.9,4.81-27.84,7.28-41.75,1.59-8.95,3.32-17.88,5-26.82Z" transform="translate(-0.16)"/><path class="cls-2" d="M737.16.43c1.68,4.27,5.88,6,8.92,8.94C759.4,22,769.38,36.59,772.55,55.1c1.28,7.45-1.45,14.46-2.73,21.56Q755.17,158,740,239.25q-12.74,69-25.58,138.05c-1,5.55-1.86,11.14-3.07,16.64-.82,3.73.15,4.89,4.11,4.87,28.81-.15,57.61-.07,86.42-.07,2.28,9.23,4.59,18.45,9.57,27.33H662c9-10.15,15.25-21.36,20.16-33.38,5.38-13.15,7.47-27.11,10-41,2.86-15.64,6-31.24,8.82-46.88,2.82-15.49,5.35-31,8.2-46.52,2.49-13.56,5.39-27,7.86-40.61,3.49-19.15,6.63-38.37,10.14-57.52,3.78-20.58,8-41.07,11.66-61.68,3.36-19.17,8-38.28,6.25-58-1.25-14-4.25-27.56-11-40.09Z" transform="translate(-0.16)"/><path class="cls-2" d="M538.16.43c-.07,2.45,2.14,2.77,3.59,3.64,8,4.81,15.48,10.35,21.68,17.44C575.59,35.41,577.61,51.05,574,69c-8.57,42.46-15.93,85.16-23.79,127.76-7.58,41.12-14.43,82.41-22.94,123.34-10,48.36-31.9,91-66.77,126.41a163,163,0,0,1-38.74,28.66c-1.3.7-3.45.7-3.37,3l-3.46.37c5.95-7,12.5-12.56,18-19.19a274.86,274.86,0,0,0,26.36-37.52,339.48,339.48,0,0,0,31-70.86c4.41-14.27,7.32-28.83,9.89-43.51,3-17.25,6.63-34.41,9.79-51.64,2.85-15.5,5.33-31.08,8.18-46.59,3.49-19,7.29-37.91,10.79-56.9,3.17-17.25,6-34.55,9.2-51.8,2.09-11.48,4.77-22.85,6.59-34.36,3.16-20,1.86-39.56-5.94-58.44-1-2.51-2.44-4.87-3.68-7.3Z" transform="translate(-0.16)"/><path class="cls-1" d="M636.16,610.43c2.38-13.76,4.6-27.55,7.29-41.25.41-2.06.12-3-1.15-4.09-1.95-1.75-3.47-4-6-5.14-.93-.44-2.23-1.35-2-2.61.35-1.61,1.93-.83,2.95-.88,8.83-.39,8.61-.4,9.92-9,1.52-10,3.34-19.88,5.35-29.75.71-3.48,1.21-6.13-2.64-8.23-2.61-1.42-4.08-4.48-7.05-5.88,1.58-1.84,3.17-1.15,4.53-1.15q29.72-.08,59.43,0a22.59,22.59,0,0,1,12.81,4c5.5,3.66,6.37,9.12,5.43,14.9-2.14,13.14-4,26.37-7.19,39.28-2.67,10.93-10.37,13.66-20,14.8a42.26,42.26,0,0,1-4.56,0c3,6.14,7.21,11,10.71,16.35q6.09,9.32,12.15,18.65h-28c-5.67-10.68-13.06-20.28-19.28-30.61-.29-.48-1-.7-1.52-1a7.37,7.37,0,0,0-1.15,2.05c-1.72,9.86-3.38,19.73-5.05,29.6Zm34.64-54c6.29,0,12.79-.26,19.26.11,3.52.2,4.63-1.52,5-4.28,1.35-9.33,2.81-18.64,5-27.82.45-1.86.1-3.12-2.41-3.05-6,.15-12,.08-18,0-2.17,0-3.22.7-3.58,3.06C674.47,535.08,672.62,545.65,670.8,556.43Z" transform="translate(-0.16)"/><path class="cls-1" d="M480.16,610.43c-9.42-6.36-10.49-10.38-7.92-23.38,3.27-16.57,6-33.25,8.93-49.88,1-5.6,1.69-11.28,3.11-16.76,2.56-9.87,11.13-18.06,22.25-18,12.15.07,24.3,0,36.45,0,10.68,0,17.21,8.39,15.3,18.84-3.22,17.59-6.11,35.23-9.12,52.86-1,6.09-1.89,12.22-3.08,18.28-1.69,8.65-6.26,15.06-14.92,18Zm28.82-18c4.16,0,8.32,0,12.49,0,1.3,0,2.5.21,2.75-1.85.4-3.38,1.33-6.69,1.92-10.05,3.3-18.56,6.54-37.13,9.88-55.68.48-2.62-.12-3.54-2.92-3.47-7.16.17-14.35.4-21.48-.07-4.81-.32-6,1.64-6.56,5.94-1.12,8.7-2.76,17.34-4.3,26-2.14,12-4.41,24-6.57,36-.38,2.1.11,3.43,2.8,3.29C501,592.28,505,592.43,509,592.43Z" transform="translate(-0.16)"/><path class="cls-1" d="M313.16,610.43c1-11,3.77-21.78,5.37-32.72.4-2.72,1.21-5.39,1.58-8.11.26-1.89.17-3.5-2-4.94-2.93-2-5.26-4.82-8.14-7.57,3.13-1.22,6.24-.66,9.22-.58,2.61.07,3.56-1.16,3.9-3.37,2-12.82,4.14-25.62,6.93-38.3.35-1.55-.53-2.42-1.4-3.46-2.5-3-4.89-6.08-7.53-9.39.13-.19,1.59.48,2.77.48,20.15-.05,40.29-.24,60.43,0,13.13.18,18.81,9,17.76,18.45-.37,3.37-1.31,6.68-1.92,10-1.69,9.27-3,18.61-5.1,27.79-2.54,11.22-9.28,15.79-20.56,16.53-9.28.61-18.64.19-28,.08-2.43,0-3.17.54-3.52,3.21-1.09,8.54-2.56,17-4.31,25.48-.45,2.17-.32,4.25-.56,6.35Zm63.79-89c-7.06,0-14,.06-21,0-2.11,0-2.57.64-2.92,2.75-1.74,10.67-3.81,21.28-5.84,32.28,7.2,0,14.16-.06,21.11,0,2.09,0,2.59-.61,2.93-2.74C373,543.05,375,532.43,377,521.44Z" transform="translate(-0.16)"/><path class="cls-1" d="M951.16,610.43c.81-5,1.61-9.95,2.43-14.93.5-3.07,2.12-4.21,5.41-4.15,11.49.22,23,0,34.49.13,2.9,0,4.84.14,4.89-3.94s1.5-7.91,2.38-12.11c-8.42,0-16.75,0-25.07,0-9.32,0-15.89-5.07-17.39-13.89-.7-4.06,1.28-8,1.92-12,1.59-10,3-20,5.35-29.78,2.5-10.57,12.61-16.84,22.87-17.21,13.15-.47,26.32,0,39.49-.18,2.68,0,3.69.84,3.22,3.39-1.76,9.52-3.54,19-5.51,29.64-3.58-4.12-6.77-7.34-9.39-11-1.53-2.13-3-3.1-5.63-3a153.72,153.72,0,0,1-16.49-.07c-3.73-.3-4.55,1.86-4.88,4.45-1.23,9.53-3.06,19-5,28.36-.6,2.94,1.56,2.28,3.06,2.28,7.16.05,14.33-.09,21.49.05,10.26.19,18.68,8.25,17.29,16.53-1,5.77-2.24,11.48-3.09,17.29a23.37,23.37,0,0,1-8.22,15.1c-2.9,2.42-6.58,3.08-9.64,5Z" transform="translate(-0.16)"/><path class="cls-1" d="M157.16,610.43c1-5.08,2.36-10.13,2.84-15.26.35-3.69,2.27-3.77,5-3.76,11.49.06,23-.19,34.48.15,3.6.1,4.88-1.13,5.32-4.31.53-3.87,1.21-7.71,1.87-11.82-8.09,0-16.26.35-24.39-.07-15.59-.81-18.78-8.85-16.83-21.41,1.7-10.92,3.76-21.78,5.74-32.65,1.35-7.41,8.93-15.5,18-17.9,6.87-1.81,13.83-.74,20.74-.92,7.66-.2,15.34.26,23-.17,4.34-.24,4.75,1.84,4.2,5-1.05,6.08-2.21,12.14-3.52,18.17-.64,2.95,0,6.2-2.46,9.18-2-3.64-5.56-5.69-7.7-9.24a7.83,7.83,0,0,0-7.85-4.07c-5.46.45-11,.17-16.48.09-2,0-2.69.35-3.06,2.63-1.72,10.7-3.83,21.35-5.87,32.39H213.9c12.91,0,19.29,7.65,17.36,20.4-.59,3.86-1.6,7.7-1.92,11.53-1,11.74-7.63,18.42-18.18,22.07Z" transform="translate(-0.16)"/><path class="cls-1" d="M.16,556.43c1.83,0,3.75-.35,5.49.07,5.6,1.34,6.91-2,7.49-6.4q2.23-17,5.91-33.63c.53-2.38.29-4.54-2.37-6.21-2.83-1.78-4.57-5-7.36-7.41H77.75c-1.54,9.5-3.08,19.09-4.66,28.67-.16,1-.27,2.4-.89,2.75-1.31.74-1.7-.65-2.43-1.56-1.86-2.29-4.16-4.19-5.68-6.81-3.21-5.52-8.65-4.18-13.68-4.55-5.41-.4-8.19.38-8.58,7.07-.47,8.18-3,16.25-4.63,24.37-.53,2.66.29,3.8,3.32,3.72,7.66-.22,15.32-.11,23,0,1.51,0,3.22-.61,5.05,1-9.29,3.85-18,7.88-27.08,11.08-6.37,2.25-8.84,6.51-9.35,12.73-.26,3.25-.88,6.47-1.41,10.11,9,0,18,0,27.11,0,2.74,0,5.24-.73,3.59,4.05s-1.57,9.95-2.26,14.95h-57C4.47,597.83,6.9,585.24,9,572.59c.52-3.13,1.54-6.74-2.26-9.12-2.33-1.47-4.4-3.34-6.59-5Z" transform="translate(-0.16)"/><path class="cls-1" d="M810.16,610.43c1.78-10.57,3.53-21.14,5.35-31.71q3.27-19,6.66-37.91c1.14-6.38,2.35-12.75,3.57-19.38-7.37,0-14.69-.2-22,.09-3.43.14-4.06-1.34-3.56-4.07.73-4,1.88-7.9,2.12-12,.11-1.69,1.17-3.07,3.61-3.06,22.8.11,45.6.08,68.4.05,2.29,0,3.26.26,2.41,3.1a57.47,57.47,0,0,0-2.42,12.9c-.18,3-1.5,3.06-3.68,3-6.66-.07-13.32,0-20-.06-2.27,0-3.23.27-3.64,3.09-1.76,12.22-4,24.38-6.14,36.54-2.21,12.64-4.48,25.27-6.72,37.9-.68,3.83-1.33,7.67-2,11.5Z" transform="translate(-0.16)"/><path class="cls-2" d="M207,197.39c.86-13.64,4.66-26.8,6.63-40.27.44-3,1.17-5.86,2-9.92,4.06,13,7.83,25.06,11.57,37.1Q259.65,288.64,292,393c1.37,4.45,3.22,5.86,7.91,5.82,29.82-.24,59.65-.13,89.47-.11,2,0,4-.37,5.91.54-1.38,8.33-2.81,16.65-4.13,25-.45,2.86-2.56,2.12-4.23,2.13q-24.26.06-48.5,0c-19.16,0-38.33-.17-57.49.14-4.19.06-5.74-1.51-6.8-5.07q-12.42-41.78-25-83.5-20.46-68-41-135.89C207.71,200.55,207.37,199,207,197.39Z" transform="translate(-0.16)"/><path class="cls-1" d="M1077.27,62.46c.4-8.49,3-16.62,4.09-25,.51-3.79,3.11-1.39,4.56-.9,20,6.72,39.9,13.57,59.85,20.35,2,.69,4,1.75,6.23,1.59-3.68,7.52-7.31,15-11.06,22.52-.64,1.27-1,3-3.49,2.18-19.3-6.65-38.66-13.14-58-19.7A19.77,19.77,0,0,1,1077.27,62.46Z" transform="translate(-0.16)"/><path class="cls-2" d="M317,227.91c.77-11.24,3.8-22.1,5.6-33.18,2.28-14.06,5-28.06,7.59-42.08,3.11-16.73,6.5-33.42,9.36-50.2,2.23-13.12,5.17-26.09,6.75-39.34a110.41,110.41,0,0,0-8.95-59.54C344.82,7.15,350.53,13,356,19c10,11,17.48,23.45,19.62,38.48,1,7.24-1.6,14.12-2.84,21.08-8.07,44.93-16.43,89.8-24.68,134.69q-6.61,36-13.2,72a27.63,27.63,0,0,1-1,2.89c-5.7-17.94-11.13-35.26-16.75-52.51A14.14,14.14,0,0,1,317,227.91Z" transform="translate(-0.16)"/></svg>